<?xml version="1.0" encoding="utf-8"?>
<svg viewBox="0 0 200 200" xmlns="http://www.w3.org/2000/svg" xmlns:bx="https://boxy-svg.com">
  <defs>
    <path id="path-0" d="M 33.957 185.665 L 69.3 205.416 C 77.872 208.33 86.715 210.817 95.287 213.732" style="fill: none;"/>
    <path id="path-1" d="M 33.957 185.665 L 69.3 205.416 C 77.872 208.33 86.715 210.817 95.287 213.732" style="fill: none;"/>
  </defs>
  <path fill="#fff" d="M 76.831 25.838 C 71.401 23.484 65.668 21.816 59.778 20.873 C 58.973 22.235 58.244 23.638 57.594 25.075 C 51.321 24.18 44.941 24.18 38.669 25.075 C 38.019 23.638 37.29 22.235 36.484 20.873 C 30.592 21.823 24.855 23.497 19.419 25.851 C 8.627 40.962 5.702 55.699 7.164 70.227 C 13.485 74.646 20.559 78.007 28.078 80.164 C 29.772 78.009 31.27 75.721 32.558 73.328 C 30.112 72.463 27.752 71.397 25.504 70.14 C 26.096 69.735 26.674 69.316 27.233 68.91 C 40.476 74.804 55.806 74.804 69.049 68.91 C 69.614 69.347 70.193 69.765 70.778 70.14 C 68.526 71.399 66.162 72.468 63.711 73.334 C 64.997 75.727 66.495 78.012 68.191 80.164 C 75.718 78.016 82.797 74.657 89.118 70.233 C 90.834 53.386 86.186 38.785 76.831 25.838 Z M 34.411 61.292 C 30.334 61.292 26.967 57.792 26.967 53.484 C 26.967 49.177 30.217 45.645 34.397 45.645 C 38.578 45.645 41.92 49.177 41.848 53.484 C 41.776 57.792 38.565 61.292 34.411 61.292 Z M 61.872 61.292 C 57.788 61.292 54.435 57.792 54.435 53.484 C 54.435 49.177 57.685 45.645 61.872 45.645 C 66.058 45.645 69.374 49.177 69.302 53.484 C 69.231 57.792 66.025 61.292 61.872 61.292 Z" style=""/>
  <path d="M 90.065 18.185 L 91.968 18.185 L 91.968 29.803 L 90.065 29.803 C 89.015 29.805 88.163 28.937 88.164 27.868 L 88.164 20.122 C 88.163 19.052 89.015 18.184 90.065 18.185 Z M 120.501 15.281 L 120.501 31.741 C 120.499 33.879 118.797 35.612 116.696 35.613 L 97.675 35.613 C 95.574 35.612 93.872 33.879 93.87 31.741 L 93.87 15.281 C 93.869 12.607 95.998 10.44 98.625 10.44 L 105.284 10.44 L 105.284 6.566 C 105.284 5.076 106.869 4.145 108.136 4.891 C 108.726 5.235 109.087 5.875 109.087 6.566 L 109.087 10.44 L 115.746 10.44 C 118.372 10.44 120.502 12.607 120.501 15.281 Z M 103.857 20.122 C 103.857 18.259 101.875 17.094 100.29 18.026 C 98.704 18.959 98.704 21.287 100.29 22.218 C 100.651 22.43 101.061 22.542 101.48 22.542 C 102.792 22.542 103.857 21.459 103.857 20.122 Z M 103.381 27.868 L 99.577 27.868 L 99.577 29.803 L 103.381 29.803 L 103.381 27.868 Z M 109.087 27.868 L 105.284 27.868 L 105.284 29.803 L 109.087 29.803 L 109.087 27.868 Z M 115.27 20.122 C 115.27 18.259 113.288 17.094 111.703 18.026 C 110.118 18.959 110.118 21.287 111.703 22.218 C 112.065 22.43 112.475 22.542 112.891 22.542 C 114.205 22.542 115.27 21.459 115.27 20.122 Z M 114.794 27.868 L 110.99 27.868 L 110.99 29.803 L 114.794 29.803 L 114.794 27.868 Z M 126.207 20.122 L 126.207 27.868 C 126.208 28.937 125.357 29.805 124.305 29.803 L 122.403 29.803 L 122.403 18.185 L 124.305 18.185 C 125.357 18.184 126.208 19.052 126.207 20.122 Z" style="fill: rgb(255, 255, 255);"/>
  <g transform="matrix(0.122806, 0, 0, 0.114821, 106.001247, 106.229495)" style="">
    <path class="cls-1" d="M438.14,168A235.31,235.31,0,0,1,580.08,552.7h79.45a299,299,0,0,0,41.4-152.25c0-153.18-114.63-279.58-262.79-298.11Z" style="fill: rgb(255, 255, 255);"/>
    <path class="cls-1" d="M208.88,631.86V537.33a235.17,235.17,0,0,1,0-273.77V169a300.44,300.44,0,0,0,0,462.83Z" style="fill: rgb(255, 255, 255);"/>
  </g>
  <polygon class="cls-1" points="154.281 114.841 133.141 114.841 137.181 122.568 137.181 181.819 133.182 189.462 181.097 189.462 185.475 174.858 154.281 174.858 154.281 114.841" style="fill: rgb(255, 255, 255);"/>
  <path style="fill: rgb(255, 255, 255); transform-box: fill-box; transform-origin: 50% 50%;" transform="matrix(-0.280279, 0.226965, -0.207713, -0.255592, -403.789105, -224.545783)" d="M 439.23 278.806 A 116 116 0 0 1 439.23 456.528 A 225.614 225.614 0 0 0 439.23 278.806 Z" bx:shape="crescent 364.667 367.667 116 100 0.9 1@51bce864"/>
  <path style="fill: rgb(255, 255, 255); transform-origin: 459.948px 367.667px;" transform="matrix(0.288203, -0.216774, 0.198454, 0.262871, -304.397073, -315.26481)" d="M 439.23 278.806 A 116 116 0 0 1 439.23 456.528 A 225.614 225.614 0 0 0 439.23 278.806 Z" bx:shape="crescent 364.667 367.667 116 100 0.9 1@51bce864"/>
</svg>