<?xml version="1.0" encoding="utf-8"?>
<svg viewBox="0 0 200 200" xmlns="http://www.w3.org/2000/svg">
  <defs>
    <path id="path-0" d="M 33.957 185.665 L 69.3 205.416 C 77.872 208.33 86.715 210.817 95.287 213.732" style="fill: none;"/>
  </defs>
  <path fill="#fff" d="M 117.513 71.387 C 109.16 67.563 100.342 64.85 91.283 63.317 C 90.044 65.533 88.922 67.813 87.923 70.147 C 78.274 68.693 68.462 68.693 58.813 70.147 C 57.814 67.813 56.692 65.533 55.453 63.317 C 46.389 64.863 37.565 67.582 29.203 71.407 C 12.603 95.967 8.103 119.917 10.353 143.527 C 20.075 150.71 30.956 156.172 42.523 159.677 C 45.128 156.174 47.433 152.457 49.413 148.567 C 45.652 147.162 42.021 145.429 38.563 143.387 C 39.473 142.727 40.363 142.047 41.223 141.387 C 61.593 150.967 85.173 150.967 105.543 141.387 C 106.413 142.097 107.303 142.777 108.203 143.387 C 104.739 145.432 101.102 147.169 97.333 148.577 C 99.311 152.466 101.616 156.179 104.223 159.677 C 115.801 156.186 126.69 150.726 136.413 143.537 C 139.053 116.157 131.903 92.427 117.513 71.387 Z M 52.263 129.007 C 45.993 129.007 40.813 123.317 40.813 116.317 C 40.813 109.317 45.813 103.577 52.243 103.577 C 58.673 103.577 63.813 109.317 63.703 116.317 C 63.593 123.317 58.653 129.007 52.263 129.007 Z M 94.503 129.007 C 88.223 129.007 83.063 123.317 83.063 116.317 C 83.063 109.317 88.063 103.577 94.503 103.577 C 100.943 103.577 106.043 109.317 105.933 116.317 C 105.823 123.317 100.893 129.007 94.503 129.007 Z"/>
  <path d="M 137.871 58.95 L 140.797 58.95 L 140.797 77.832 L 137.871 77.832 C 136.254 77.835 134.944 76.424 134.945 74.686 L 134.945 62.097 C 134.944 60.359 136.254 58.948 137.871 58.95 Z M 184.686 54.23 L 184.686 80.98 C 184.683 84.455 182.064 87.271 178.834 87.274 L 149.575 87.274 C 146.344 87.271 143.726 84.455 143.723 80.98 L 143.723 54.23 C 143.721 49.884 146.997 46.362 151.037 46.363 L 161.279 46.363 L 161.279 40.067 C 161.279 37.646 163.716 36.132 165.667 37.343 C 166.573 37.904 167.129 38.944 167.129 40.067 L 167.129 46.363 L 177.371 46.363 C 181.411 46.362 184.687 49.884 184.686 54.23 Z M 159.083 62.097 C 159.083 59.069 156.036 57.177 153.598 58.691 C 151.158 60.206 151.158 63.99 153.598 65.504 C 154.153 65.849 154.785 66.031 155.427 66.031 C 157.446 66.031 159.084 64.269 159.083 62.097 Z M 158.352 74.686 L 152.5 74.686 L 152.5 77.832 L 158.352 77.832 L 158.352 74.686 Z M 167.129 74.686 L 161.279 74.686 L 161.279 77.832 L 167.129 77.832 L 167.129 74.686 Z M 176.639 62.097 C 176.639 59.069 173.591 57.177 171.153 58.691 C 168.715 60.206 168.715 63.99 171.153 65.504 C 171.71 65.849 172.339 66.031 172.981 66.031 C 175.002 66.031 176.639 64.269 176.639 62.097 Z M 175.908 74.686 L 170.056 74.686 L 170.056 77.832 L 175.908 77.832 L 175.908 74.686 Z M 193.463 62.097 L 193.463 74.686 C 193.465 76.424 192.154 77.835 190.536 77.832 L 187.611 77.832 L 187.611 58.95 L 190.536 58.95 C 192.154 58.948 193.465 60.359 193.463 62.097 Z" style="fill: rgb(255, 255, 255);"/>
</svg>